<svg width="147" height="146" viewBox="0 0 147 146" fill="none" xmlns="http://www.w3.org/2000/svg">
<circle cx="73.3763" cy="72.7059" r="72.7059" fill="#B8CDC4" fill-opacity="0.15"/>
<g clip-path="url(#clip0_435:1591)">
<path d="M40.4416 107.852L32.3249 61.7699C32.2465 61.3251 32.1976 60.8756 32.1786 60.4244C32.058 55.1999 35.8095 50.6868 40.9681 49.8507L56.6312 47.0866L56.2071 107.852H40.4416Z" fill="#35495E"/>
<path d="M100.725 105.834C100.453 106.962 99.5409 107.822 98.3994 108.028L52.3022 116.159C49.3967 116.667 46.4134 115.898 44.1147 114.05C41.8159 112.202 40.4243 109.454 40.2953 106.507C40.1801 101.512 43.6192 97.1348 48.4998 96.0649L61.4134 99.6918H61.3988L49.7721 101.754C48.4754 101.982 47.3492 102.779 46.7033 103.926C46.0574 105.074 45.96 106.45 46.4377 107.677C47.2649 109.653 49.3658 110.777 51.4686 110.368L86.6996 104.152L100.725 105.834Z" fill="#2C3E50"/>
<path d="M61.3988 99.6919L49.7721 101.754C48.4754 101.982 47.3492 102.779 46.7033 103.926C46.0575 105.074 45.96 106.45 46.4377 107.677C47.2649 109.653 49.3658 110.777 51.4686 110.368L86.6996 104.152L61.3988 99.6919Z" fill="#F9EAB0"/>
<path d="M50.834 80.0081L58.961 33.9197C59.2519 32.3355 60.7614 31.2788 62.3495 31.5476L108.091 39.6131C113.254 40.4499 117.008 44.9658 116.888 50.1941C116.868 50.6433 116.819 51.0908 116.742 51.5338L108.615 97.6222L50.834 80.0081Z" fill="#319DAB"/>
<path d="M98.5282 46.8147C98.4424 46.8147 98.3568 46.8073 98.2722 46.7928L65.1457 40.9517C64.3981 40.7673 63.9215 40.0349 64.0558 39.2767C64.1901 38.5185 64.8892 37.9943 65.6546 38.0779L98.7797 43.9117C99.5268 44.0426 100.05 44.7229 99.9844 45.4785C99.9189 46.2341 99.2866 46.8143 98.5282 46.8147Z" fill="#3F5C6C"/>
<path d="M91.4965 52.9951C91.4106 52.9952 91.325 52.9874 91.2406 52.9717L69.6369 49.1678C68.8596 49.0102 68.3496 48.2617 68.4873 47.4807C68.6249 46.6996 69.36 46.1706 70.1444 46.2882L91.7495 50.0906C92.5009 50.2176 93.0289 50.9003 92.9628 51.6596C92.8966 52.4188 92.2586 52.9999 91.4965 52.9951Z" fill="#3F5C6C"/>
<path d="M94.5497 59.5272L64.2984 54.1833C63.5029 54.0428 62.744 54.5738 62.6034 55.3694L60.0587 69.7748C59.9182 70.5704 60.4492 71.3293 61.2448 71.4698L91.4961 76.8137C92.2917 76.9542 93.0506 76.4232 93.1911 75.6276L95.7358 61.2222C95.8763 60.4267 95.3453 59.6678 94.5497 59.5272Z" fill="#ECF0F1"/>
<path d="M116.885 50.187C116.868 50.6384 116.819 51.088 116.739 51.5325L108.608 97.6151L97.332 94.1783L103.869 57.1192L105.42 48.3736L106.999 39.4232L108.096 39.6133C113.252 40.4536 117.001 44.964 116.885 50.187Z" fill="#6E9194"/>
<path d="M99.9641 85.6959L54.2179 77.6376C54.0488 77.6085 53.8776 77.5938 53.706 77.5938C52.1902 77.5976 50.9285 78.7588 50.7992 80.2691C50.6698 81.7794 51.7157 83.1382 53.2088 83.3998L99.2914 91.5165C100.587 91.7511 101.71 92.5528 102.352 93.702C102.995 94.8512 103.09 96.2276 102.611 97.4542C101.788 99.4258 99.6907 100.545 97.5949 100.13L51.6878 92.043C51.5187 92.0139 51.3475 91.9992 51.1759 91.9991C49.6573 91.9954 48.3885 93.1544 48.2551 94.6672C48.1217 96.1799 49.1682 97.5431 50.6641 97.8052L96.7613 105.922C99.6647 106.431 102.647 105.665 104.945 103.82C107.244 101.975 108.637 99.229 108.768 96.2842C108.883 91.0536 105.128 86.5374 99.9641 85.6959Z" fill="#547274"/>
<path d="M102.611 97.4544C101.789 99.426 99.6909 100.545 97.5951 100.131L51.688 92.0432L53.209 83.4L99.2915 91.5167C100.587 91.7513 101.71 92.553 102.352 93.7022C102.995 94.8514 103.09 96.2278 102.611 97.4544Z" fill="#F9EAB0"/>
</g>
<defs>
<clipPath id="clip0_435:1591">
<rect width="84.8235" height="84.8235" fill="white" transform="translate(25.5112 21.5426)"/>
</clipPath>
</defs>
</svg>
