<svg width="146" height="146" viewBox="0 0 146 146" fill="none" xmlns="http://www.w3.org/2000/svg">
<circle cx="72.7059" cy="72.7059" r="72.7059" fill="#B8CDC4" fill-opacity="0.15"/>
<g clip-path="url(#clip0_435:1591)">
<path d="M68.3091 38.2427V109.593C68.3091 112.627 70.7689 115.087 73.8041 115.087H106.952C109.987 115.087 112.447 112.627 112.447 109.593V38.2427C112.447 35.2082 109.987 32.7484 106.952 32.7484H73.8041C70.7696 32.7484 68.3091 35.2082 68.3091 38.2427Z" fill="#6A7193"/>
<path d="M106.952 32.7484H103.246C106.281 32.7484 108.74 35.2082 108.74 38.2427V109.593C108.74 112.627 106.281 115.087 103.246 115.087H106.952C109.987 115.087 112.447 112.627 112.447 109.593V38.2427C112.447 35.2082 109.987 32.7484 106.952 32.7484Z" fill="#575B7A"/>
<path d="M68.3091 45.0332H112.447V102.802H68.3091V45.0332Z" fill="#C8E7F7"/>
<path d="M108.74 45.0332H112.446V102.802H108.74V45.0332Z" fill="#8CBCD6"/>
<path d="M92.9486 108.945C92.9486 110.364 91.7973 111.515 90.3781 111.515C88.9583 111.515 87.8076 110.364 87.8076 108.945C87.8076 107.525 88.9583 106.374 90.3781 106.374C91.7973 106.374 92.9486 107.525 92.9486 108.945Z" fill="#252D4C"/>
<path d="M60.446 64.5887C58.4081 62.5075 57.2672 59.7105 57.2672 56.7977V50.6788C57.2672 50.0064 56.7223 49.4615 56.0499 49.4615H43.82C43.1483 49.4615 42.6034 50.0064 42.6034 50.6788V56.7983C42.6034 59.7105 41.4625 62.5075 39.4246 64.5887L38.6279 65.4022H61.2427L60.446 64.5887Z" fill="#E9E9EA"/>
<path d="M60.446 99.9597C58.4081 102.041 57.2672 104.838 57.2672 107.751V113.87C57.2672 114.542 56.7223 115.087 56.0499 115.087H43.82C43.1483 115.087 42.6034 114.542 42.6034 113.87V107.751C42.6034 104.838 41.4625 102.041 39.4246 99.9603L38.6279 99.1469H61.2427L60.446 99.9597Z" fill="#E9E9EA"/>
<path d="M60.4463 64.5887C58.4084 62.5075 57.2675 59.7105 57.2675 56.7977V50.6782C57.2675 50.0065 56.7226 49.4615 56.0502 49.4615H52.1025C52.7749 49.4615 53.3192 50.0065 53.3192 50.6782V56.7977C53.3192 59.7105 54.4608 62.5075 56.4986 64.5887L57.2953 65.4022H61.2429L60.4463 64.5887Z" fill="#C5C4CC"/>
<path d="M57.2953 99.1465L56.4986 99.96C54.4608 102.041 53.3192 104.838 53.3192 107.75V113.87C53.3192 114.542 52.7749 115.086 52.1025 115.086H56.0502C56.7226 115.086 57.2675 114.542 57.2675 113.87V107.75C57.2675 104.838 58.4084 102.041 60.4463 99.96L61.2429 99.1465H57.2953Z" fill="#C5C4CC"/>
<path d="M61.2427 99.146H38.6279L39.4246 99.9601C40.5519 101.111 41.4029 102.481 41.9401 103.969H57.9305C58.4677 102.481 59.3193 101.111 60.446 99.9601L61.2427 99.146Z" fill="#C5C4CC"/>
<path d="M35.3994 67.1871V97.3612C35.3994 98.9474 36.6853 100.233 38.2708 100.233H61.6C63.1862 100.233 64.4714 98.9474 64.4714 97.3612V67.1871C64.4714 65.6016 63.1862 64.3157 61.6 64.3157H38.2708C36.6853 64.3157 35.3994 65.6016 35.3994 67.1871Z" fill="#575B7A"/>
<path d="M40.8452 73.0796V75.2708C40.8452 76.4021 41.7622 77.3191 42.8941 77.3191H45.0854C46.2166 77.3191 47.1336 76.4021 47.1336 75.2708V73.0796C47.1336 71.9477 46.2166 71.0307 45.0854 71.0307H42.8941C41.7622 71.0307 40.8452 71.9477 40.8452 73.0796Z" fill="#8CBAFA"/>
<path d="M52.7368 73.0796V75.2708C52.7368 76.4021 53.6538 77.3191 54.7851 77.3191H56.9763C58.1082 77.3191 59.0252 76.4021 59.0252 75.2708V73.0796C59.0252 71.9477 58.1082 71.0307 56.9763 71.0307H54.7851C53.6538 71.0307 52.7368 71.9477 52.7368 73.0796Z" fill="#C9EA6E"/>
<path d="M40.8452 87.4319V89.6239C40.8452 90.7551 41.7622 91.6721 42.8941 91.6721H45.0854C46.2166 91.6721 47.1336 90.7551 47.1336 89.6239V87.4319C47.1336 86.3007 46.2166 85.3837 45.0854 85.3837H42.8941C41.7622 85.3837 40.8452 86.3007 40.8452 87.4319Z" fill="#FFCD34"/>
<path d="M52.7368 87.4319V89.6239C52.7368 90.7551 53.6538 91.6721 54.7851 91.6721H56.9763C58.1082 91.6721 59.0252 90.7551 59.0252 89.6239V87.4319C59.0252 86.3007 58.1082 85.3837 56.9763 85.3837H54.7851C53.6538 85.3837 52.7368 86.3007 52.7368 87.4319Z" fill="#FF76A4"/>
<path d="M67.0676 86.948H64.4712V77.6005H67.0676C68.4926 77.6005 69.6471 78.7557 69.6471 80.1807V84.3685C69.6471 85.7928 68.4926 86.948 67.0676 86.948Z" fill="#8CBAFA"/>
<path d="M90.378 105.131C88.2754 105.131 86.5649 106.842 86.5649 108.945C86.5649 111.047 88.2754 112.757 90.378 112.757C92.4806 112.757 94.191 111.047 94.191 108.945C94.191 106.842 92.4806 105.131 90.378 105.131ZM90.378 110.272C89.646 110.272 89.05 109.677 89.05 108.944C89.05 108.212 89.646 107.616 90.378 107.616C91.1099 107.616 91.7059 108.212 91.7059 108.944C91.7059 109.677 91.1099 110.272 90.378 110.272Z" fill="#319DAB"/>
<path d="M94.0607 37.6481H86.6942C86.0082 37.6481 85.4517 38.2046 85.4517 38.8906C85.4517 39.5772 86.0082 40.1331 86.6942 40.1331H94.0607C94.7467 40.1331 95.3033 39.5772 95.3033 38.8906C95.3033 38.2046 94.7467 37.6481 94.0607 37.6481Z" fill="black"/>
<path d="M106.952 31.5057H73.8039C70.0886 31.5057 67.0664 34.5279 67.0664 38.2426V73.8515C67.0664 74.5381 67.623 75.094 68.3089 75.094C68.9956 75.094 69.5515 74.5381 69.5515 73.8515V46.2757H111.204V50.7287C111.204 51.4147 111.761 51.9713 112.447 51.9713C113.133 51.9713 113.689 51.4147 113.689 50.7287V38.2426C113.689 34.5279 110.667 31.5057 106.952 31.5057ZM69.5515 43.7906V38.2426C69.5515 35.8986 71.4593 33.9908 73.8039 33.9908H106.952C109.297 33.9908 111.204 35.8986 111.204 38.2426V43.7906H69.5515Z" fill="#319DAB"/>
<path d="M112.447 54.8174C111.761 54.8174 111.204 55.3733 111.204 56.06V101.559H69.5515V92.5451C69.5515 91.8585 68.9956 91.3026 68.3089 91.3026C67.623 91.3026 67.0664 91.8585 67.0664 92.5451V109.592C67.0664 113.307 70.0886 116.329 73.8039 116.329H106.952C110.667 116.329 113.689 113.307 113.689 109.592V56.06C113.689 55.3733 113.133 54.8174 112.447 54.8174ZM106.952 113.844H73.8039C71.4593 113.844 69.5515 111.936 69.5515 109.592V104.044H111.204V109.592C111.204 111.936 109.297 113.844 106.952 113.844Z" fill="#319DAB"/>
<path d="M45.0852 69.7882H42.894C41.0787 69.7882 39.6025 71.2643 39.6025 73.0789V75.2702C39.6025 77.0855 41.0793 78.5616 42.894 78.5616H45.0852C46.8998 78.5616 48.376 77.0855 48.376 75.2702V73.0789C48.376 71.2643 46.8998 69.7882 45.0852 69.7882ZM45.8909 75.2702C45.8909 75.7148 45.5292 76.0765 45.0852 76.0765H42.894C42.4494 76.0765 42.0876 75.7148 42.0876 75.2702V73.0789C42.0876 72.635 42.4494 72.2732 42.894 72.2732H45.0852C45.5298 72.2732 45.8909 72.635 45.8909 73.0789V75.2702Z" fill="#319DAB"/>
<path d="M56.9767 69.7882H54.7854C52.9708 69.7882 51.4946 71.2643 51.4946 73.0789V75.2702C51.4946 77.0855 52.9708 78.5616 54.7854 78.5616H56.9767C58.7919 78.5616 60.2681 77.0855 60.2681 75.2702V73.0789C60.2681 71.2643 58.7919 69.7882 56.9767 69.7882ZM57.783 75.2702C57.783 75.7148 57.4212 76.0765 56.9767 76.0765H54.7854C54.3415 76.0765 53.9797 75.7148 53.9797 75.2702V73.0789C53.9797 72.635 54.3415 72.2732 54.7854 72.2732H56.9767C57.4212 72.2732 57.783 72.635 57.783 73.0789V75.2702Z" fill="#319DAB"/>
<path d="M45.0852 84.1412H42.894C41.0787 84.1412 39.6025 85.6173 39.6025 87.4319V89.6238C39.6025 91.4385 41.0793 92.9146 42.894 92.9146H45.0852C46.8998 92.9146 48.376 91.4385 48.376 89.6238V87.4319C48.376 85.6173 46.8998 84.1412 45.0852 84.1412ZM45.8909 89.6238C45.8909 90.0678 45.5292 90.4296 45.0852 90.4296H42.894C42.4494 90.4296 42.0876 90.0678 42.0876 89.6238V87.4319C42.0876 86.988 42.4494 86.6262 42.894 86.6262H45.0852C45.5298 86.6262 45.8909 86.988 45.8909 87.4319V89.6238Z" fill="#319DAB"/>
<path d="M56.9767 84.1412H54.7854C52.9708 84.1412 51.4946 85.6173 51.4946 87.4319V89.6238C51.4946 91.4385 52.9708 92.9146 54.7854 92.9146H56.9767C58.7919 92.9146 60.2681 91.4385 60.2681 89.6238V87.4319C60.2681 85.6173 58.7919 84.1412 56.9767 84.1412ZM57.783 89.6238C57.783 90.0678 57.4212 90.4296 56.9767 90.4296H54.7854C54.3415 90.4296 53.9797 90.0678 53.9797 89.6238V87.4319C53.9797 86.988 54.3415 86.6262 54.7854 86.6262H56.9767C57.4212 86.6262 57.783 86.988 57.783 87.4319V89.6238Z" fill="#319DAB"/>
<path d="M67.0677 88.1904C69.1754 88.1904 70.8897 86.4754 70.8897 84.3683V80.1806C70.8897 78.0728 69.1754 76.3585 67.0677 76.3585H65.7138V67.1877C65.7138 64.9188 63.8688 63.0731 61.5999 63.0731H60.7547C59.3025 61.3058 58.5091 59.0983 58.5091 56.799V50.6789C58.5091 49.3224 57.4063 48.2184 56.0505 48.2184H43.8207C42.4642 48.2184 41.3602 49.3218 41.3602 50.6789V52.0088C41.3602 52.6954 41.9167 53.2513 42.6027 53.2513C43.2887 53.2513 43.8453 52.6954 43.8453 52.0088V50.7035H56.024V56.7983C56.024 59.0258 56.6194 61.1854 57.7312 63.0725H42.1381C43.1774 61.3045 43.7695 59.2918 43.8394 57.2164C43.8627 56.5304 43.3256 55.9558 42.6396 55.9325C41.9485 55.9072 41.379 56.4469 41.3557 57.1329C41.2825 59.308 40.4917 61.397 39.1165 63.0725H38.2707C36.0024 63.0725 34.1567 64.9182 34.1567 67.1871V97.3612C34.1567 99.6295 36.0024 101.475 38.2707 101.475H39.1159C40.5668 103.241 41.3602 105.449 41.3602 107.751V113.871C41.3602 115.226 42.4642 116.329 43.8207 116.329H56.0505C57.4063 116.329 58.5091 115.226 58.5091 113.871V112.879C58.5091 112.192 57.9525 111.636 57.2665 111.636C56.5799 111.636 56.024 112.192 56.024 112.879V113.844H43.8453V107.751C43.8453 105.522 43.2505 103.362 42.1394 101.476H57.7312C56.6194 103.363 56.0234 105.522 56.0234 107.751C56.0234 108.437 56.5799 108.993 57.2659 108.993C57.9525 108.993 58.5084 108.437 58.5084 107.751C58.5084 105.451 59.3025 103.243 60.7547 101.476H61.5999C63.8681 101.476 65.7138 99.6301 65.7138 97.3612V88.1904H67.0677ZM67.0677 78.8429C67.8048 78.8429 68.4047 79.4428 68.4047 80.18V84.3677C68.4047 85.1054 67.8048 85.7053 67.0677 85.7053H65.7138V78.8429H67.0677ZM63.2288 97.3612C63.2288 98.2594 62.4981 98.9907 61.5999 98.9907H60.2117C60.1956 98.9901 60.1794 98.9901 60.1632 98.9907H39.71C39.6912 98.9901 39.6731 98.9901 39.6549 98.9907H38.2707C37.3724 98.9907 36.6418 98.2594 36.6418 97.3612V67.1871C36.6418 66.2888 37.3724 65.5582 38.2707 65.5582H61.5999C62.4981 65.5582 63.2288 66.2888 63.2288 67.1871V97.3612Z" fill="#319DAB"/>
</g>
<defs>
<clipPath id="clip0_435:1591">
<rect width="84.8235" height="84.8235" fill="white" transform="translate(31.5059 31.5057)"/>
</clipPath>
</defs>
</svg>
