<svg width="146" height="146" viewBox="0 0 146 146" fill="none" xmlns="http://www.w3.org/2000/svg">
<circle cx="73.1175" cy="72.7059" r="72.7059" fill="#B8CDC4" fill-opacity="0.15"/>
<path d="M59.2959 46.3121H77.851V91.3746H59.2959V46.3121Z" fill="#547274"/>
<path d="M77.2609 46.5349L71.5618 42.7358C72.3162 42.2206 72.9246 41.5191 73.328 40.6995C73.7315 39.8799 73.9162 38.97 73.8644 38.0579C73.8126 37.1459 73.5259 36.2627 73.0322 35.4941C72.5385 34.7255 71.8545 34.0975 71.0467 33.6711C70.2388 33.2447 69.3344 33.0343 68.4213 33.0604C67.5081 33.0864 66.6172 33.3481 65.835 33.8199C65.0527 34.2917 64.4057 34.9576 63.9566 35.7531C63.5076 36.5487 63.2717 37.4467 63.272 38.3602C63.272 38.7117 63.4116 39.0489 63.6602 39.2974C63.9087 39.546 64.2458 39.6856 64.5974 39.6856C64.9489 39.6856 65.286 39.546 65.5345 39.2974C65.7831 39.0489 65.9227 38.7117 65.9227 38.3602C65.9227 37.836 66.0782 37.3235 66.3695 36.8876C66.6607 36.4517 67.0747 36.1119 67.5591 35.9113C68.0434 35.7107 68.5764 35.6582 69.0906 35.7604C69.6048 35.8627 70.0771 36.1152 70.4478 36.4859C70.8185 36.8566 71.071 37.3289 71.1733 37.8431C71.2755 38.3573 71.223 38.8903 71.0224 39.3746C70.8218 39.859 70.482 40.273 70.0461 40.5642C69.6102 40.8555 69.0977 41.011 68.5735 41.011C68.3118 41.0109 68.0559 41.0884 67.8382 41.2336L59.886 46.5351C59.5956 46.731 59.3946 47.0339 59.3268 47.3775C59.259 47.7212 59.3301 48.0777 59.5244 48.3691C59.7187 48.6606 60.0205 48.8633 60.3638 48.9328C60.7071 49.0024 61.064 48.9333 61.3565 48.7405L68.5735 43.9291L75.7904 48.7404C76.0829 48.9331 76.4398 49.0023 76.7831 48.9327C77.1264 48.8631 77.4282 48.6604 77.6225 48.369C77.8168 48.0775 77.8879 47.721 77.8201 47.3774C77.7524 47.0337 77.5513 46.7308 77.2609 46.5349Z" fill="#7E8589"/>
<path d="M105.094 46.5349L99.3948 42.7358C100.149 42.2206 100.758 41.5191 101.161 40.6995C101.564 39.8799 101.749 38.97 101.697 38.0579C101.646 37.1459 101.359 36.2627 100.865 35.4941C100.372 34.7255 99.6875 34.0975 98.8797 33.6711C98.0718 33.2447 97.1674 33.0343 96.2543 33.0604C95.3411 33.0864 94.4502 33.3481 93.668 33.8199C92.8857 34.2917 92.2387 34.9576 91.7896 35.7531C91.3406 36.5487 91.1047 37.4467 91.105 38.3602C91.105 38.7117 91.2446 39.0489 91.4932 39.2974C91.7417 39.546 92.0789 39.6856 92.4304 39.6856C92.7819 39.6856 93.119 39.546 93.3675 39.2974C93.6161 39.0489 93.7557 38.7117 93.7557 38.3602C93.7557 37.836 93.9112 37.3235 94.2025 36.8876C94.4937 36.4517 94.9077 36.1119 95.3921 35.9113C95.8764 35.7107 96.4094 35.6582 96.9236 35.7604C97.4378 35.8627 97.9101 36.1152 98.2808 36.4859C98.6515 36.8566 98.904 37.3289 99.0063 37.8431C99.1085 38.3573 99.056 38.8903 98.8554 39.3746C98.6548 39.859 98.315 40.273 97.8791 40.5642C97.4432 40.8555 96.9307 41.011 96.4065 41.011C96.1448 41.0109 95.8889 41.0884 95.6712 41.2336L87.719 46.5351C87.4286 46.731 87.2276 47.0339 87.1598 47.3775C87.092 47.7212 87.1631 48.0777 87.3574 48.3691C87.5517 48.6606 87.8535 48.8633 88.1968 48.9328C88.5401 49.0024 88.897 48.9333 89.1895 48.7405L96.4065 43.9291L103.623 48.7404C103.916 48.9331 104.273 49.0023 104.616 48.9327C104.959 48.8631 105.261 48.6604 105.456 48.369C105.65 48.0775 105.721 47.721 105.653 47.3774C105.585 47.0337 105.384 46.7308 105.094 46.5349Z" fill="#7E8589"/>
<path d="M83.1528 46.3121H109.66V51.6136H83.1528V46.3121Z" fill="#266FAB"/>
<path d="M96.4064 109.93H80.502L83.1527 51.6137H96.4064V109.93Z" fill="#3397E8"/>
<path d="M96.4062 109.93H112.311L109.66 51.6137H96.4062V109.93Z" fill="#3397E8"/>
<path d="M112.311 109.93H96.4062V51.6137H109.66L109.961 58.2406L112.311 109.93Z" fill="#3397E8"/>
<path d="M63.2723 52.939V94.0254H53.9947V96.6761H46.0425V70.1688L49.0146 50.328C49.3011 49.181 49.9629 48.1627 50.8947 47.435C51.8265 46.7074 52.9748 46.3121 54.157 46.3121H60.6215C60.6183 48.354 61.4042 50.3181 62.815 51.7942L63.2723 52.939Z" fill="#6E9194"/>
<path d="M91.1048 70.1688V96.6761H83.1526V94.0254H73.875V52.939L74.3323 51.7942C75.7431 50.3181 76.529 48.354 76.5257 46.3121H82.9902C84.1725 46.3121 85.3208 46.7074 86.2526 47.435C87.1844 48.1627 87.8461 49.181 88.1326 50.328L91.1048 70.1688Z" fill="#6E9194"/>
<path d="M62.8148 51.7942C61.404 50.3181 60.6181 48.354 60.6213 46.3121H55.3198L56.1681 51.8257C56.728 55.4605 61.6269 56.2292 63.272 52.939V52.2382C63.113 52.0957 62.9606 51.9483 62.8148 51.7942Z" fill="#547274"/>
<path d="M81.8272 46.3121L80.979 51.8257C80.419 55.4605 75.5201 56.2292 73.875 52.939V52.2382C74.034 52.0957 74.1865 51.9483 74.3323 51.7942C75.7431 50.3181 76.529 48.354 76.5257 46.3121H81.8272Z" fill="#547274"/>
<path d="M95.0811 51.6137H97.7318V109.93H95.0811V51.6137Z" fill="#2D85CC"/>
<path d="M109.961 58.2405H109.66C104.358 58.2405 104.358 51.6137 104.358 51.6137H109.66L109.961 58.2405Z" fill="#2D85CC"/>
<path d="M81.8271 94.0254V68.8435C81.8271 68.492 81.9668 68.1548 82.2153 67.9063C82.4639 67.6577 82.801 67.5181 83.1525 67.5181C83.504 67.5181 83.8411 67.6577 84.0897 67.9063C84.3382 68.1548 84.4779 68.492 84.4779 68.8435V94.0254H81.8271Z" fill="#547274"/>
<path d="M52.6694 94.0254V68.8435C52.6694 68.492 52.8091 68.1548 53.0576 67.9063C53.3062 67.6577 53.6433 67.5181 53.9948 67.5181C54.3463 67.5181 54.6834 67.6577 54.932 67.9063C55.1805 68.1548 55.3202 68.492 55.3202 68.8435V94.0254H52.6694Z" fill="#547274"/>
</svg>
