<svg width="146" height="146" viewBox="0 0 146 146" fill="none" xmlns="http://www.w3.org/2000/svg">
<circle cx="72.7884" cy="72.7059" r="72.7059" fill="#B8CDC4" fill-opacity="0.15"/>
<g clip-path="url(#clip0_435:1591)">
<path d="M117.555 46.7888C117.227 46.7888 116.899 46.6638 116.649 46.4136L103.928 33.6929C103.428 33.1926 103.428 32.3814 103.928 31.8811C104.428 31.3808 105.239 31.3808 105.74 31.8811L118.461 44.6018C118.961 45.102 118.961 45.9133 118.461 46.4134C118.21 46.6638 117.882 46.7888 117.555 46.7888Z" fill="#191E1F"/>
<path d="M114.076 49.0506C113.748 49.0506 113.42 48.9255 113.17 48.6754L101.665 37.1703C101.165 36.67 101.165 35.8589 101.665 35.3587C102.166 34.8584 102.977 34.8584 103.477 35.3587L114.982 46.8638C115.482 47.3641 115.482 48.1752 114.982 48.6755C114.732 48.9255 114.404 49.0506 114.076 49.0506Z" fill="#191E1F"/>
<path d="M110.447 51.1384C110.12 51.1384 109.792 51.0133 109.541 50.7631L99.5784 40.8C99.078 40.2997 99.078 39.4885 99.5784 38.9882C100.079 38.4877 100.89 38.4879 101.39 38.9882L111.353 48.9513C111.854 49.4517 111.854 50.2628 111.353 50.7631C111.103 51.0133 110.775 51.1384 110.447 51.1384Z" fill="#191E1F"/>
<path d="M106.877 49.4496L116.906 43.046C118.568 41.9852 119.201 39.8587 118.37 38.0709C118.358 38.0451 118.346 38.0192 118.333 37.9931C117.089 35.3872 119.773 34.3849 117.865 32.4772C115.979 30.5911 114.955 33.2529 112.349 32.0089C112.323 31.9964 112.297 31.9842 112.271 31.9723C110.483 31.1416 108.357 31.7741 107.296 33.4356L100.893 43.4655L106.877 49.4496Z" fill="#6E9194"/>
<path d="M118.37 38.0724C118.357 38.0465 118.345 38.0207 118.333 37.9945C117.089 35.3887 119.772 34.3865 117.865 32.4787C117.262 31.8756 116.747 31.7384 116.24 31.7888C116.054 33.2391 114.295 34.7873 115.219 36.7227C115.231 36.7487 115.219 36.7227 115.231 36.7485C116.061 38.5363 115.429 40.6628 113.767 41.7236L104.702 47.2769L106.876 49.451L116.906 43.0475C118.568 41.9868 119.2 39.8601 118.37 38.0724Z" fill="#547274"/>
<path d="M43.5741 106.767C50.457 113.65 62.2611 121.159 73.3783 112.284C80.8247 106.339 79.0011 100.217 81.0276 95.3183C83.0541 90.4196 86.4343 90.8344 91.3814 86.0936C97.5719 80.1612 97.6522 70.3993 88.7969 61.544C79.9417 52.6887 70.1795 52.769 64.2473 58.9595C59.5065 63.9066 59.9213 67.2866 55.0226 69.3133C50.1239 71.3398 44.0017 69.5162 38.0572 76.9626C29.1821 88.0798 36.6911 99.8839 43.5741 106.767Z" fill="#319DAB"/>
<path d="M81.0282 95.3183C83.0547 90.4196 86.4348 90.8344 91.3819 86.0936C97.5724 80.1613 97.6527 70.3993 88.7975 61.544C88.4279 61.1744 88.0566 60.8218 87.6842 60.4832C95.4598 69.0335 95.1399 78.235 89.2078 83.9197C84.2607 88.6605 80.8807 88.2457 78.8541 93.1444C76.8276 98.0431 78.6511 104.165 71.2047 110.11C60.6614 118.527 49.5011 112.208 42.5059 105.662C42.8622 106.043 43.2192 106.412 43.5746 106.767C50.4576 113.65 62.2616 121.159 73.3788 112.284C80.8252 106.339 79.0017 100.217 81.0282 95.3183Z" fill="#547274"/>
<path d="M75.6061 87.1498C79.0373 83.7186 79.0373 78.1555 75.6061 74.7243C72.1749 71.2931 66.6118 71.2931 63.1806 74.7243C59.7493 78.1555 59.7493 83.7186 63.1806 87.1498C66.6118 90.5811 72.1749 90.5811 75.6061 87.1498Z" fill="#191E1F"/>
<path d="M75.6161 74.7251C75.245 74.354 74.8479 74.0257 74.4324 73.7349C76.8313 77.1623 76.5028 81.9179 73.442 84.9787C70.3812 88.0394 65.6258 88.3678 62.1982 85.9689C62.489 86.3844 62.8175 86.7817 63.1885 87.1526C66.6202 90.5843 72.1842 90.5843 75.6159 87.1526C79.048 83.7209 79.048 78.1568 75.6161 74.7251Z" fill="#547274"/>
<path d="M62.2574 101.04L49.3016 88.0839C48.6195 87.4019 48.6195 86.2962 49.3016 85.6141L50.7545 84.1612C51.4366 83.4791 52.5423 83.4791 53.2243 84.1612L66.1801 97.117C66.8622 97.799 66.8622 98.9047 66.1801 99.5866L64.7272 101.04C64.0451 101.722 62.9395 101.722 62.2574 101.04Z" fill="#191E1F"/>
<path d="M66.1799 97.1169L64.0058 94.9428C64.6878 95.6249 64.6878 96.7306 64.0058 97.4125L62.5528 98.8654C61.8708 99.5475 60.7651 99.5475 60.083 98.8654L62.2571 101.04C62.9392 101.722 64.0449 101.722 64.7268 101.04L66.1797 99.5866C66.8618 98.9047 66.8618 97.799 66.1799 97.1169Z" fill="#547274"/>
<path d="M106.876 49.4483L102.734 53.5922L100.922 55.4045L96.7437 59.5825L94.9314 61.3932L88.9411 67.3835L84.763 71.5615L82.9524 73.3738L77.84 78.4844C77.442 77.1077 76.7007 75.8095 75.616 74.7249C74.5314 73.6402 73.2332 72.8988 71.8564 72.5009L76.9689 67.3903L78.7795 65.578L82.9576 61.3999L88.9479 55.4096L90.7602 53.599L96.7505 47.6087L100.893 43.4647L106.876 49.4483Z" fill="#6E9194"/>
<path d="M77.8406 78.4843L106.876 49.4486L104.702 47.2745L76.3799 75.5968C77.0566 76.479 77.5437 77.4598 77.8406 78.4843Z" fill="#547274"/>
<path d="M94.9297 49.4263L96.7418 47.6142L102.724 53.5968L100.912 55.4089L94.9297 49.4263Z" fill="#191E1F"/>
<path d="M88.9287 55.3854L90.7399 53.5742L96.7225 59.5568L94.9113 61.368L88.9287 55.3854Z" fill="#191E1F"/>
<path d="M82.9492 61.4025L84.7612 59.5905L90.7438 65.5731L88.9318 67.3851L82.9492 61.4025Z" fill="#191E1F"/>
<path d="M76.9629 67.4196L78.7741 65.6084L84.7567 71.5911L82.9455 73.4022L76.9629 67.4196Z" fill="#191E1F"/>
</g>
<defs>
<clipPath id="clip0_435:1591">
<rect width="84.8235" height="84.8235" fill="white" transform="translate(34.0117 31.5059)"/>
</clipPath>
</defs>
</svg>
