<svg width="146" height="146" viewBox="0 0 146 146" fill="none" xmlns="http://www.w3.org/2000/svg">
<circle opacity="0.15" cx="72.7781" cy="72.7059" r="72.7059" fill="#B8CDC4"/>
<g clip-path="url(#clip0_435:1591)">
<path d="M103.914 100.444V110.021H99.6732L96.8457 104.549V100.444H103.914Z" fill="#CE892A"/>
<path d="M103.914 100.444V107.285H98.2594L96.8457 104.549V100.444H103.914Z" fill="#B0792C"/>
<path d="M61.5029 104.548V32.038C61.5029 30.9494 61.9498 29.9055 62.7451 29.1357C63.5405 28.366 64.6193 27.9336 65.7441 27.9336H105.328C106.453 27.9336 107.532 28.366 108.327 29.1357C109.123 29.9055 109.57 30.9494 109.57 32.038V100.444C109.57 101.533 109.123 102.577 108.327 103.346C107.532 104.116 106.453 104.548 105.328 104.548H61.5029Z" fill="#95B4A6"/>
<path d="M84.1233 100.444V110.021H79.8821L77.0547 104.549V100.444H84.1233Z" fill="#EAAE48"/>
<path d="M84.1233 100.444V107.285H78.4684L77.0547 104.549V100.444H84.1233Z" fill="#D7A147"/>
<path d="M48.7796 100.444V104.549L45.9521 110.021H41.7109V100.444H48.7796Z" fill="#EAAE48"/>
<path d="M48.7796 100.444V104.549L47.3658 107.285H41.7109V100.444H48.7796Z" fill="#D7A147"/>
<path d="M36.0557 93.6034V66.241C36.0557 65.1525 36.5025 64.1085 37.2979 63.3388C38.0933 62.5691 39.172 62.1366 40.2968 62.1366H85.5361C86.6609 62.1366 87.7397 62.5691 88.535 63.3388C89.3304 64.1085 89.7773 65.1525 89.7773 66.241V93.6034H36.0557Z" fill="#CACAC9"/>
<path d="M81.2948 92.2355V85.53C81.2948 81.0285 84.9813 77.2624 89.6321 77.1873C90.752 77.1688 91.8645 77.3651 92.9055 77.7649C93.9466 78.1647 94.8955 78.76 95.6975 79.5165C96.4996 80.2731 97.1389 81.1758 97.5785 82.1727C98.0182 83.1696 98.2494 84.2408 98.259 85.3247C98.2686 86.4085 98.0563 87.4834 97.6343 88.4875C97.2124 89.4915 96.5891 90.4047 95.8006 91.1744C95.012 91.9441 94.0738 92.555 93.0399 92.972C92.0061 93.3889 90.8972 93.6036 89.7772 93.6036V100.444C89.7772 101.533 89.3304 102.577 88.535 103.346C87.7396 104.116 86.6608 104.549 85.536 104.549H40.2968C39.172 104.549 38.0932 104.116 37.2978 103.346C36.5024 102.577 36.0556 101.533 36.0556 100.444V93.6036C34.378 93.6036 32.738 93.1222 31.3431 92.2202C29.9481 91.3182 28.8609 90.0362 28.2189 88.5362C27.5769 87.0363 27.4089 85.3858 27.7362 83.7934C28.0635 82.2011 28.8714 80.7384 30.0577 79.5904C31.2439 78.4424 32.7554 77.6606 34.4008 77.3439C36.0462 77.0271 37.7517 77.1897 39.3017 77.811C40.8516 78.4323 42.1764 79.4844 43.1084 80.8344C44.0405 82.1843 44.538 83.7713 44.538 85.3949V92.2355C44.538 92.2355 50.1929 89.4992 62.9164 89.4992C75.6399 89.4992 81.2948 92.2355 81.2948 92.2355Z" fill="#E4E4E3"/>
<path d="M64.3302 53.9281H36.0557L37.4694 37.5106H62.9165L64.3302 53.9281Z" fill="#E4E4E3"/>
<path d="M36.0556 81.2906C35.2168 81.2906 34.3968 81.5313 33.6994 81.9823C33.0019 82.4333 32.4583 83.0743 32.1373 83.8243C31.8163 84.5742 31.7323 85.3995 31.8959 86.1956C32.0596 86.9918 32.4635 87.7231 33.0567 88.2971C33.6498 88.8711 34.4055 89.2621 35.2282 89.4204C36.0509 89.5788 36.9037 89.4975 37.6787 89.1869C38.4536 88.8762 39.116 88.3501 39.582 87.6752C40.0481 87.0002 40.2968 86.2067 40.2968 85.3949C40.2955 84.3068 39.8483 83.2635 39.0532 82.494C38.2581 81.7246 37.1801 81.2918 36.0556 81.2906V81.2906ZM36.0556 86.763C35.776 86.763 35.5027 86.6828 35.2702 86.5325C35.0377 86.3821 34.8565 86.1685 34.7495 85.9185C34.6425 85.6685 34.6145 85.3934 34.6691 85.128C34.7236 84.8626 34.8583 84.6188 35.056 84.4275C35.2537 84.2362 35.5056 84.1059 35.7798 84.0531C36.0541 84.0003 36.3383 84.0274 36.5966 84.1309C36.855 84.2345 37.0758 84.4099 37.2311 84.6348C37.3864 84.8598 37.4694 85.1243 37.4694 85.3949C37.4689 85.7576 37.3199 86.1054 37.0548 86.3619C36.7898 86.6184 36.4304 86.7626 36.0556 86.763Z" fill="#95B4A6"/>
<path d="M89.7773 81.2906C88.9385 81.2906 88.1185 81.5313 87.421 81.9823C86.7236 82.4333 86.18 83.0743 85.859 83.8243C85.538 84.5742 85.454 85.3995 85.6176 86.1956C85.7813 86.9918 86.1852 87.7231 86.7784 88.2971C87.3715 88.8711 88.1272 89.2621 88.9499 89.4204C89.7726 89.5788 90.6254 89.4975 91.4004 89.1869C92.1753 88.8762 92.8377 88.3501 93.3037 87.6752C93.7698 87.0002 94.0185 86.2067 94.0185 85.3949C94.0172 84.3068 93.57 83.2635 92.7749 82.494C91.9798 81.7246 90.9018 81.2918 89.7773 81.2906V81.2906ZM89.7773 86.763C89.4977 86.763 89.2244 86.6828 88.9919 86.5325C88.7594 86.3821 88.5782 86.1685 88.4712 85.9185C88.3642 85.6685 88.3362 85.3934 88.3908 85.128C88.4453 84.8626 88.5799 84.6188 88.7777 84.4275C88.9754 84.2362 89.2273 84.1059 89.5015 84.0531C89.7758 84.0003 90.06 84.0274 90.3183 84.1309C90.5767 84.2345 90.7975 84.4099 90.9528 84.6348C91.1081 84.8598 91.1911 85.1243 91.1911 85.3949C91.1906 85.7576 91.0416 86.1054 90.7765 86.3619C90.5115 86.6184 90.1521 86.7626 89.7773 86.763Z" fill="#95B4A6"/>
<path d="M99.6739 85.3951C99.6739 84.1237 99.4123 82.8651 98.9044 81.6925C98.3964 80.52 97.6524 79.4571 96.7155 78.5658C95.7787 77.6745 94.6678 76.9726 93.4477 76.5011C92.2276 76.0296 90.9228 75.798 89.6092 75.8196C84.2455 75.9063 79.8817 80.2624 79.8817 85.5302V90.1262C76.009 89.1061 70.3608 88.1313 62.917 88.1313C55.4732 88.1313 49.825 89.1061 45.9523 90.1262V85.3951C45.9523 84.1061 45.6834 82.8305 45.1618 81.6445C44.6402 80.4585 43.8765 79.3866 42.9166 78.493C41.9567 77.5995 40.8203 76.9026 39.5754 76.4442C38.3306 75.9859 37.0029 75.7754 35.672 75.8254C33.1849 75.9269 30.8278 76.9285 29.0676 78.6319C27.3073 80.3354 26.2723 82.6164 26.1675 85.0233C26.0732 87.3886 26.8868 89.704 28.4517 91.5232C30.0165 93.3424 32.2218 94.5368 34.6425 94.876V100.444C34.6442 101.895 35.2405 103.286 36.3006 104.312C37.3607 105.338 38.7981 105.915 40.2974 105.917V110.021C40.2974 110.384 40.4463 110.732 40.7114 110.989C40.9766 111.245 41.3362 111.389 41.7111 111.389H45.9523C46.2148 111.389 46.4721 111.319 46.6955 111.185C46.9188 111.052 47.0993 110.86 47.2167 110.633L49.6534 105.917H76.1806L78.6173 110.633C78.7347 110.86 78.9152 111.052 79.1385 111.185C79.3618 111.319 79.6192 111.389 79.8817 111.389H84.1229C84.4978 111.389 84.8574 111.245 85.1225 110.989C85.3877 110.732 85.5366 110.384 85.5366 110.021V105.917C87.0359 105.915 88.4732 105.338 89.5334 104.312C90.5935 103.286 91.1898 101.895 91.1915 100.444V94.8745C93.5456 94.5426 95.6978 93.4023 97.2551 91.662C98.8124 89.9216 99.6709 87.6973 99.6739 85.3951V85.3951ZM45.0786 108.653H43.1248V105.917H46.4923L45.0786 108.653ZM82.7092 108.653H80.7554L79.3417 105.917H82.7092V108.653ZM89.7778 92.2357C89.4028 92.2357 89.0433 92.3798 88.7781 92.6364C88.513 92.893 88.3641 93.241 88.3641 93.6038V100.444C88.3632 101.17 88.065 101.865 87.5349 102.378C87.0049 102.891 86.2862 103.18 85.5366 103.181H40.2974C39.5478 103.18 38.8291 102.891 38.299 102.378C37.769 101.865 37.4708 101.17 37.4699 100.444V93.6038C37.4699 93.241 37.321 92.893 37.0558 92.6364C36.7907 92.3798 36.4311 92.2357 36.0562 92.2357C35.1046 92.2357 34.1628 92.0498 33.2873 91.6891C32.4118 91.3284 31.6205 90.8003 30.9609 90.1365C30.3014 89.4728 29.7871 88.6869 29.4489 87.8262C29.1107 86.9654 28.9556 86.0475 28.9929 85.1273C29.0678 83.4089 29.8068 81.7803 31.0635 80.5641C32.3202 79.3479 34.003 78.6328 35.7787 78.5603C36.7296 78.5242 37.6782 78.6742 38.5677 79.0014C39.4572 79.3285 40.2692 79.8262 40.9552 80.4644C41.6412 81.1026 42.1869 81.8683 42.5597 82.7156C42.9325 83.5628 43.1247 84.4742 43.1248 85.3951V90.9702C40.8963 91.7227 39.7252 92.3455 39.6043 92.4113L40.9874 94.7978C41.0604 94.7585 48.4604 90.8676 62.917 90.8676C77.3736 90.8676 84.7735 94.7585 84.8435 94.7963L86.2297 92.4113C86.1088 92.3455 84.9377 91.722 82.7092 90.9702V85.5302C82.7092 81.7463 85.8257 78.6174 89.6564 78.5555C90.5897 78.5399 91.517 78.7033 92.3847 79.0363C93.2524 79.3693 94.0434 79.8654 94.7119 80.4958C95.3805 81.1262 95.9134 81.8786 96.2799 82.7094C96.6463 83.5402 96.8392 84.433 96.8472 85.3364C96.8552 86.2397 96.6782 87.1356 96.3266 87.9724C95.9749 88.8091 95.4554 89.5702 94.7981 90.2117C94.1409 90.8531 93.3588 91.3622 92.4972 91.7096C91.6355 92.057 90.7112 92.2358 89.7778 92.2357V92.2357Z" fill="#547274"/>
<path d="M37.47 66.2412C37.4709 65.5158 37.7691 64.8203 38.2992 64.3073C38.8292 63.7944 39.5479 63.5058 40.2975 63.505H85.5367C86.2863 63.5058 87.005 63.7944 87.535 64.3073C88.0651 64.8203 88.3633 65.5158 88.3642 66.2412V73.0818H91.1916V66.2412C91.1899 64.7903 90.5936 63.3993 89.5335 62.3734C88.4733 61.3474 87.036 60.7703 85.5367 60.7687H40.2975C38.7982 60.7703 37.3609 61.3474 36.3007 62.3734C35.2406 63.3993 34.6443 64.7903 34.6426 66.2412V73.0818H37.47V66.2412Z" fill="#547274"/>
<path d="M54.4346 68.9774H57.262V71.7137H54.4346V68.9774Z" fill="#547274"/>
<path d="M61.5029 75.8182H64.3304V78.5545H61.5029V75.8182Z" fill="#547274"/>
<path d="M47.3662 75.8182H50.1937V78.5545H47.3662V75.8182Z" fill="#547274"/>
<path d="M54.4346 82.6586H57.262V85.3949H54.4346V82.6586Z" fill="#547274"/>
<path d="M68.5723 68.9774H71.3997V71.7137H68.5723V68.9774Z" fill="#547274"/>
<path d="M75.6406 75.8182H78.4681V78.5545H75.6406V75.8182Z" fill="#547274"/>
<path d="M68.5723 82.6586H71.3997V85.3949H68.5723V82.6586Z" fill="#547274"/>
<path d="M105.329 26.5657H65.7447C64.2455 26.5673 62.8081 27.1444 61.748 28.1703C60.6879 29.1963 60.0915 30.5873 60.0898 32.0382V33.4063H62.9173V32.0382C62.9182 31.3127 63.2164 30.6173 63.7464 30.1043C64.2765 29.5913 64.9951 29.3028 65.7447 29.3019H84.1232V58.0325H86.9506V29.3019H105.329C106.079 29.3028 106.797 29.5913 107.327 30.1043C107.857 30.6173 108.156 31.3127 108.157 32.0382V100.444C108.156 101.17 107.857 101.865 107.327 102.378C106.797 102.891 106.079 103.18 105.329 103.18H92.6055V105.917H95.973L98.4098 110.633C98.5272 110.86 98.7077 111.051 98.931 111.185C99.1543 111.318 99.4117 111.389 99.6742 111.389H103.915C104.29 111.389 104.65 111.245 104.915 110.988C105.18 110.732 105.329 110.384 105.329 110.021V105.917C106.828 105.915 108.266 105.338 109.326 104.312C110.386 103.286 110.982 101.895 110.984 100.444V32.0382C110.982 30.5873 110.386 29.1963 109.326 28.1703C108.266 27.1444 106.828 26.5673 105.329 26.5657V26.5657ZM102.502 108.653H100.548L99.1341 105.917H102.502V108.653Z" fill="#547274"/>
<path d="M36.0562 55.296H48.7798V58.0323H51.6072V55.296H64.3308C64.5263 55.296 64.7198 55.2568 64.8988 55.1807C65.0779 55.1047 65.2387 54.9935 65.3711 54.8542C65.5035 54.7149 65.6046 54.5506 65.668 54.3716C65.7315 54.1926 65.7558 54.0028 65.7396 53.8142L64.3258 37.3967C64.2964 37.0548 64.1352 36.736 63.8742 36.5037C63.6133 36.2713 63.2716 36.1423 62.9171 36.1423H51.6072V33.4061H48.7798V36.1423H37.47C37.1154 36.1423 36.7737 36.2713 36.5128 36.5037C36.2519 36.736 36.0907 37.0548 36.0612 37.3967L34.6475 53.8142C34.6312 54.0028 34.6556 54.1926 34.719 54.3716C34.7824 54.5506 34.8835 54.7149 35.0159 54.8542C35.1483 54.9935 35.3091 55.1047 35.4882 55.1807C35.6673 55.2568 35.8607 55.296 36.0562 55.296V55.296ZM38.7708 38.8786H61.6162L62.7944 52.5598H37.5926L38.7708 38.8786Z" fill="#547274"/>
</g>
<defs>
<clipPath id="clip0_435:1591">
<rect width="84.8235" height="84.8235" fill="white" transform="translate(23.5098 25.2403)"/>
</clipPath>
</defs>
</svg>
