<svg width="146" height="146" viewBox="0 0 146 146" fill="none" xmlns="http://www.w3.org/2000/svg">
<circle cx="73.0467" cy="72.7059" r="72.7059" fill="#B8CDC4" fill-opacity="0.15"/>
<g clip-path="url(#clip0_435:1591)">
<path d="M109.112 59.981H68.1085V62.6596C68.1085 68.8383 63.8027 74.0527 58.0728 74.7313L57.5097 84.1244C57.4435 85.053 56.7479 85.7316 55.8868 85.7316H55.5225V90.8032H55.7543C58.8677 90.8032 61.418 93.5532 61.418 96.9105V104.018H109.112C111.464 104.018 113.385 101.946 113.385 99.4105V64.5882C113.385 62.0524 111.464 60.0167 109.112 59.981Z" fill="#3A70BF"/>
<path d="M109.111 104.053H61.417V106.089H62.2781C62.8412 106.089 63.3049 106.589 63.3049 107.196V107.589H106.859C108.316 107.589 109.476 106.339 109.476 104.768V104.018C109.343 104.053 109.244 104.053 109.111 104.053Z" fill="#29589F"/>
<path d="M99.54 107.589V108.125C99.54 109.803 100.799 111.196 102.39 111.196C103.98 111.196 105.239 109.839 105.239 108.125V107.589H99.54Z" fill="#29589F"/>
<path d="M38.5645 85.7673H55.5556V90.8389H38.5645V85.7673Z" fill="#3A70BF"/>
<path d="M61.419 106.089V96.9462C61.419 93.5889 58.8687 90.8389 55.7553 90.8389H38.3336C35.2202 90.8389 32.6699 93.5889 32.6699 96.9462V106.089H61.419Z" fill="#EDF4FC"/>
<path d="M31.7748 106.089H62.3125C62.8755 106.089 63.3392 106.589 63.3392 107.196V110.089C63.3392 110.697 62.8755 111.197 62.3125 111.197H31.7748C31.2117 111.197 30.748 110.697 30.748 110.089V107.196C30.7812 106.589 31.2117 106.089 31.7748 106.089Z" fill="#C7D7E5"/>
<path d="M59.6961 43.5162H32.6693C31.5101 43.5162 30.5496 44.5162 30.5165 45.7662C30.4833 47.0162 31.4438 48.052 32.6031 48.0877H32.6693H59.6961C60.8554 48.0877 61.8159 47.0877 61.849 45.8376C61.8821 44.5876 60.9216 43.5519 59.7624 43.5162C59.7293 43.5162 59.7293 43.5162 59.6961 43.5162Z" fill="#EDF4FC"/>
<path d="M31.6752 48.1236C30.8803 48.1236 30.251 48.8021 30.251 49.6593C30.251 50.0522 30.4166 50.445 30.6816 50.7308L33.265 53.5165C33.6293 53.9094 33.8612 54.4451 33.8943 55.0166L36.544 84.1602C36.6102 85.0888 37.3058 85.7673 38.1669 85.7673H55.9198C56.781 85.7673 57.4765 85.053 57.5428 84.1602L59.7619 48.1236H31.6752Z" fill="#70D6F9"/>
<path d="M58.0409 43.5163C58.0409 40.8377 56.0205 38.6591 53.5695 38.6591H38.7975C36.3134 38.6591 34.3262 40.8377 34.3262 43.4806V43.5163H58.0409Z" fill="#DAE6F1"/>
<path d="M64.3322 48.1236H59.7284L59.4966 51.9451H64.3322C64.4647 51.9451 64.5641 52.0522 64.5641 52.1951V62.6953C64.5641 66.6597 61.9475 70.0884 58.3373 70.8741L58.1055 74.8028C63.8023 74.1242 68.108 68.9098 68.1412 62.7311V52.1951C68.108 49.945 66.4189 48.1236 64.3322 48.1236Z" fill="#5290DB"/>
<path d="M98.1162 63.8381H68.0754C67.5454 69.5525 63.4053 74.1241 58.1059 74.767L57.5097 84.1243C57.4435 85.0529 56.7479 85.7315 55.8868 85.7315H55.5225V90.8031H55.7543C58.8677 90.8031 61.418 93.5531 61.418 96.9104V100.196H98.0831C98.4805 100.196 98.7786 99.839 98.7786 99.4461V64.5881C98.8117 64.1596 98.5137 63.8381 98.1162 63.8381Z" fill="#818182"/>
<path d="M58.9993 59.9808L58.3369 70.8025C61.9471 70.0168 64.5637 66.6238 64.5637 62.6238V59.9451L58.9993 59.9808Z" fill="#3A70BF"/>
<path d="M58.7675 63.8381L58.3369 70.8383C61.5497 70.1597 64.0337 67.3382 64.4974 63.8381H58.7675Z" fill="#818182"/>
<path d="M52.5414 85.7673L53.6012 48.1236H40.4521L41.512 85.7673H52.5414Z" fill="#9BE5F9"/>
<path d="M48.4351 81.1599H45.6518C45.2542 81.1599 44.9229 81.517 44.9229 81.9456V85.7314H49.164V81.9456C49.164 81.517 48.8327 81.1599 48.4351 81.1599Z" fill="#5290DB"/>
<path d="M47.0439 95.3747C48.6343 95.3747 49.8934 96.7676 49.8934 98.4462C49.8934 100.161 48.6012 101.518 47.0439 101.518C45.4534 101.518 44.1943 100.125 44.1943 98.4462C44.1943 96.7319 45.4534 95.3747 47.0439 95.3747Z" fill="#70D6F9"/>
<path d="M98.8129 74.3026H97.1231C95.3007 74.3026 93.8428 75.874 93.8428 77.8383V86.2314C93.8428 88.1957 95.3007 89.7672 97.1231 89.7672H98.8129V74.3026Z" fill="#DAE6F1"/>
<path d="M105.9 73.0527C107.491 73.0527 108.75 74.4455 108.75 76.1242C108.75 77.8385 107.458 79.1957 105.9 79.1957C104.31 79.1957 103.051 77.8028 103.051 76.1242C103.051 74.4455 104.31 73.0527 105.9 73.0527Z" fill="#5290DB"/>
<path d="M105.9 63.8381C107.491 63.8381 108.75 65.231 108.75 66.9096C108.75 68.624 107.458 69.9811 105.9 69.9811C104.31 69.9811 103.051 68.5882 103.051 66.9096C103.051 65.1953 104.31 63.8381 105.9 63.8381Z" fill="#5290DB"/>
<path d="M105.9 85.5172C105.039 85.5172 104.376 84.7672 104.376 83.8743C104.376 82.9457 105.072 82.2314 105.9 82.2314C106.762 82.2314 107.424 82.9814 107.424 83.8743C107.424 84.7672 106.728 85.5172 105.9 85.5172Z" fill="#FC657E"/>
<path d="M94.9363 55.4809C95.5036 55.4809 95.9635 54.9852 95.9635 54.3737C95.9635 53.7623 95.5036 53.2666 94.9363 53.2666C94.3691 53.2666 93.9092 53.7623 93.9092 54.3737C93.9092 54.9852 94.3691 55.4809 94.9363 55.4809Z" fill="#87D147"/>
<path d="M76.7195 113.696C77.2868 113.696 77.7467 113.201 77.7467 112.589C77.7467 111.978 77.2868 111.482 76.7195 111.482C76.1523 111.482 75.6924 111.978 75.6924 112.589C75.6924 113.201 76.1523 113.696 76.7195 113.696Z" fill="#70D6F9"/>
<path d="M70.0955 44.7664C70.6628 44.7664 71.1227 44.2707 71.1227 43.6592C71.1227 43.0477 70.6628 42.552 70.0955 42.552C69.5282 42.552 69.0684 43.0477 69.0684 43.6592C69.0684 44.2707 69.5282 44.7664 70.0955 44.7664Z" fill="#F5C84C"/>
<path d="M71.3559 116.304C69.9311 116.589 68.7714 117.768 68.5064 119.339C68.5064 119.375 68.4732 119.411 68.4401 119.411C68.4069 119.411 68.4069 119.375 68.3738 119.339C68.0756 117.804 66.949 116.589 65.5243 116.304C65.4911 116.304 65.458 116.268 65.458 116.232C65.458 116.197 65.4911 116.197 65.5243 116.161C66.949 115.875 68.1087 114.696 68.3738 113.125C68.3738 113.089 68.4069 113.054 68.4401 113.054C68.4732 113.054 68.4732 113.089 68.5064 113.125C68.8046 114.661 69.9311 115.875 71.3559 116.161C71.389 116.161 71.4222 116.197 71.4222 116.232C71.389 116.268 71.389 116.304 71.3559 116.304Z" fill="#F5C84C"/>
<path d="M66.0897 36.3732H65.3939V35.6231C65.3939 35.0517 64.9632 34.5874 64.433 34.5874C63.9029 34.5874 63.4721 35.0517 63.4721 35.6231V36.3732H62.7763C62.2462 36.3732 61.8154 36.8375 61.8154 37.4089C61.8154 37.9803 62.2462 38.4446 62.7763 38.4446H63.4721V39.1947C63.4721 39.7661 63.9029 40.2304 64.433 40.2304C64.9632 40.2304 65.3939 39.7661 65.3939 39.1947V38.4446H66.0897C66.6199 38.4446 67.0506 37.9803 67.0506 37.4089C67.0506 36.8375 66.6199 36.3732 66.0897 36.3732Z" fill="#FC657E"/>
<path d="M109.111 59.0879H68.9347V52.1949C68.9347 49.4448 66.8811 47.2305 64.3308 47.2305H62.3435C63.0722 45.659 62.4429 43.7661 60.9856 42.9804C60.5881 42.7661 60.1244 42.659 59.6939 42.659H58.7996C58.4021 39.8732 56.183 37.8017 53.5664 37.8017H38.7944C36.1779 37.8017 33.9587 39.8732 33.5613 42.659H32.667C31.0441 42.659 29.7192 44.0876 29.7192 45.8376C29.7192 46.5162 29.918 47.1948 30.2823 47.7305C29.2887 48.552 29.0899 50.052 29.8517 51.1235C29.9511 51.1949 30.0173 51.2663 30.0836 51.3377L32.667 54.1235C32.8989 54.3735 33.0314 54.7307 33.0645 55.0878L35.7142 84.2314C35.8135 85.4457 36.6416 86.41 37.7345 86.6243V90.0173C34.3893 90.3387 31.839 93.3745 31.839 96.9817V105.196H31.7727C30.746 105.196 29.918 106.089 29.918 107.196V110.089C29.918 111.196 30.746 112.089 31.7727 112.089H62.3104C63.3372 112.089 64.1652 111.196 64.1652 110.089V108.482H98.7437C98.9424 110.661 100.698 112.268 102.718 112.054C104.474 111.875 105.865 110.375 106.03 108.482H106.858C108.746 108.482 110.303 106.839 110.303 104.768C112.588 104.16 114.211 101.982 114.211 99.4461V64.5881C114.211 61.5523 111.926 59.0879 109.111 59.0879ZM62.2442 96.946C62.2442 93.3388 59.6939 90.303 56.3486 89.9816V86.5886C57.4416 86.3386 58.2365 85.3743 58.3359 84.1957L58.4021 82.8742H93.0137V86.2672C93.0137 88.6958 94.8354 90.6959 97.1207 90.6959H97.9819V99.3746H62.2442V96.946ZM39.3906 89.9458V86.6601H54.7257V89.9458H39.3906ZM41.3116 49.0163H52.7715L51.7448 84.8743H49.9894V81.9814C49.9894 81.0528 49.2938 80.3027 48.4327 80.3027H45.6505C44.7893 80.3027 44.0938 81.0528 44.0938 81.9814V84.8743H42.3384L41.3116 49.0163ZM58.8327 49.0163C58.8327 49.052 57.3423 73.374 57.4085 72.3026L56.6798 84.0886C56.6467 84.5529 56.2824 84.8743 55.8849 84.8743H53.4008L54.4276 49.0163H58.8327ZM59.2302 69.6239L59.5282 64.7309H63.4365C62.8404 66.981 61.2837 68.8025 59.2302 69.6239ZM63.7346 62.6595V62.9095H59.6607L59.7932 60.8737H63.7677L63.7346 62.6595ZM63.7346 59.0879H59.8926L60.29 52.8021H63.7677L63.7346 59.0879ZM48.3333 84.8743H45.7499V82.0885H48.3333V84.8743ZM94.6698 77.8027C94.6698 76.3384 95.7628 75.1598 97.1207 75.1598H97.9819V88.8387H97.1207C95.7628 88.8387 94.6698 87.6601 94.6698 86.1958V77.8027ZM97.9819 73.4097H97.1207C94.8685 73.4097 93.0137 75.3741 93.0137 77.8384V81.0885H58.5346L58.8658 75.5526C63.9665 74.624 67.9741 70.2668 68.8022 64.7309H97.9819V73.4097ZM67.2786 52.1949V62.6952C67.2786 68.0167 63.8009 72.624 58.9652 73.7312L59.0977 71.5883C62.8072 70.4811 65.3576 66.8381 65.3576 62.6952V52.1949C65.3576 51.552 64.8939 51.052 64.2977 51.052H60.3232L60.4556 49.0163H64.2977C65.9537 49.0163 67.2786 50.4092 67.2786 52.1949ZM38.7944 39.5517H53.5664C55.2887 39.5517 56.7461 40.8375 57.1435 42.6232H35.2505C35.6148 40.8375 37.1052 39.5517 38.7944 39.5517ZM32.667 44.409H59.6939C60.4225 44.409 60.9856 45.0162 61.0187 45.8019C61.0187 46.5876 60.4556 47.1948 59.727 47.2305H59.6939H32.667C31.9384 47.2305 31.3753 46.5876 31.3753 45.8019C31.4084 45.0519 31.9715 44.4447 32.667 44.409ZM37.3702 84.0528L34.7205 54.9093C34.6543 54.1235 34.3562 53.4092 33.8263 52.8378L31.2428 50.052C31.011 49.802 31.011 49.4091 31.2428 49.1591C31.3422 49.052 31.5078 48.9805 31.6734 48.9805H39.6556L40.6823 84.8386H38.1982C37.7345 84.8386 37.3702 84.4814 37.3702 84.0528ZM33.495 96.946C33.495 94.0531 35.6479 91.7316 38.3307 91.7316H55.7856C58.4684 91.7316 60.6212 94.0531 60.6212 96.946V105.196H33.495V96.946ZM62.476 110.089C62.476 110.196 62.3767 110.303 62.2773 110.303H31.7727C31.6734 110.303 31.574 110.196 31.574 110.089V107.196C31.574 107.089 31.6734 106.982 31.7727 106.982H62.3104C62.4098 106.982 62.5092 107.089 62.5092 107.196L62.476 110.089ZM102.354 110.303C101.36 110.303 100.532 109.553 100.367 108.482H104.341C104.176 109.518 103.347 110.303 102.354 110.303ZM106.858 106.696H64.099C63.9002 105.803 63.1385 105.196 62.3104 105.196H62.2773V104.946H108.647C108.548 105.946 107.786 106.696 106.858 106.696ZM112.555 99.4461C112.555 101.482 111.032 103.16 109.111 103.16H62.2442V101.125H98.0812C98.9424 101.125 99.6048 100.375 99.6048 99.4818V64.5881C99.6048 63.6595 98.9093 62.9452 98.0812 62.9452H68.9015C68.9015 62.8737 68.9015 62.7666 68.9015 62.6952V60.9094H109.077C110.965 60.9094 112.522 62.5523 112.522 64.6238V99.4461H112.555Z" fill="#547274"/>
<path d="M107.325 88.4459H104.476C104.012 88.4459 103.647 88.8387 103.647 89.3387C103.647 89.8388 104.012 90.2316 104.476 90.2316H107.325C107.789 90.2316 108.154 89.8388 108.154 89.3387C108.154 88.8387 107.789 88.4459 107.325 88.4459Z" fill="#547274"/>
<path d="M107.325 91.6602H104.476C104.012 91.6602 103.647 92.053 103.647 92.553C103.647 93.0531 104.012 93.4459 104.476 93.4459H107.325C107.789 93.4459 108.154 93.0531 108.154 92.553C108.154 92.053 107.789 91.6602 107.325 91.6602Z" fill="#547274"/>
<path d="M107.325 94.839H104.476C104.012 94.839 103.647 95.2319 103.647 95.7319C103.647 96.2319 104.012 96.6248 104.476 96.6248H107.325C107.789 96.6248 108.154 96.2319 108.154 95.7319C108.154 95.2319 107.789 94.839 107.325 94.839Z" fill="#547274"/>
<path d="M107.325 98.0175H104.476C104.012 98.0175 103.647 98.4103 103.647 98.9104C103.647 99.4104 104.012 99.8032 104.476 99.8032H107.325C107.789 99.8032 108.154 99.4104 108.154 98.9104C108.154 98.4103 107.789 98.0175 107.325 98.0175Z" fill="#547274"/>
<path d="M53.6022 97.5533H52.8401C52.3762 97.5533 52.0117 97.9462 52.0117 98.4462C52.0117 98.9462 52.3762 99.3391 52.8401 99.3391H53.6022C54.066 99.3391 54.4305 98.9462 54.4305 98.4462C54.4305 97.9462 54.066 97.5533 53.6022 97.5533Z" fill="#547274"/>
<path d="M57.3776 97.5533H56.6155C56.1516 97.5533 55.7871 97.9462 55.7871 98.4462C55.7871 98.9462 56.1516 99.3391 56.6155 99.3391H57.3776C57.8414 99.3391 58.2059 98.9462 58.2059 98.4462C58.2059 97.9462 57.8414 97.5533 57.3776 97.5533Z" fill="#547274"/>
<path d="M41.2135 97.5533H40.4514C39.9875 97.5533 39.623 97.9462 39.623 98.4462C39.623 98.9462 39.9875 99.3391 40.4514 99.3391H41.2135C41.6774 99.3391 42.0418 98.9462 42.0418 98.4462C42.0418 97.9462 41.6774 97.5533 41.2135 97.5533Z" fill="#547274"/>
<path d="M37.4713 97.5533H36.7092C36.2453 97.5533 35.8809 97.9462 35.8809 98.4462C35.8809 98.9462 36.2453 99.3391 36.7092 99.3391H37.4713C37.9352 99.3391 38.2997 98.9462 38.2997 98.4462C38.2997 97.9462 37.9352 97.5533 37.4713 97.5533Z" fill="#547274"/>
<path d="M47.0427 94.4816C45.0223 94.4816 43.3662 96.2673 43.3662 98.4459C43.3662 100.625 45.0223 102.41 47.0427 102.41C49.063 102.41 50.7191 100.625 50.7191 98.4459C50.7191 96.2673 49.063 94.4816 47.0427 94.4816ZM47.0427 100.625C45.9165 100.625 45.0223 99.6603 45.0223 98.4459C45.0223 97.2316 45.9165 96.2673 47.0427 96.2673C48.1688 96.2673 49.063 97.2316 49.063 98.4459C49.063 99.6603 48.1688 100.625 47.0427 100.625Z" fill="#547274"/>
<path d="M105.899 72.1599C103.879 72.1599 102.223 73.9456 102.223 76.1242C102.223 78.3029 103.879 80.0886 105.899 80.0886C107.919 80.0886 109.576 78.3029 109.576 76.1242C109.576 73.9456 107.919 72.1599 105.899 72.1599ZM105.899 78.3029C104.773 78.3029 103.879 77.3386 103.879 76.1242C103.879 74.9099 104.773 73.9456 105.899 73.9456C107.025 73.9456 107.919 74.9099 107.919 76.1242C107.919 77.3386 107.025 78.3029 105.899 78.3029Z" fill="#547274"/>
<path d="M105.899 62.9452C103.879 62.9452 102.223 64.7309 102.223 66.9096C102.223 69.0882 103.879 70.8739 105.899 70.8739C107.919 70.8739 109.576 69.0882 109.576 66.9096C109.576 64.6952 107.919 62.9452 105.899 62.9452ZM105.899 69.0882C104.773 69.0882 103.879 68.1239 103.879 66.9096C103.879 65.6952 104.773 64.7309 105.899 64.7309C107.025 64.7309 107.919 65.6952 107.919 66.9096C107.919 68.1239 107.025 69.0882 105.899 69.0882Z" fill="#547274"/>
<path d="M105.9 81.3386C104.608 81.3386 103.548 82.4814 103.548 83.8743C103.548 85.2672 104.608 86.4101 105.9 86.4101C107.193 86.4101 108.253 85.2672 108.253 83.8743C108.253 82.4814 107.193 81.3386 105.9 81.3386ZM105.9 84.6244C105.503 84.6244 105.205 84.2672 105.205 83.8743C105.205 83.4815 105.536 83.1243 105.9 83.1243C106.298 83.1243 106.596 83.4815 106.596 83.8743C106.596 84.3029 106.298 84.6244 105.9 84.6244Z" fill="#547274"/>
</g>
<defs>
<clipPath id="clip0_435:1591">
<rect width="84.8235" height="84.8235" fill="white" transform="translate(29.4229 31.5059)"/>
</clipPath>
</defs>
</svg>
